<svg width="215" height="215" viewBox="0 0 215 215" fill="none" xmlns="http://www.w3.org/2000/svg">
<path d="M80.2681 89.2377L109.319 111.026C113.051 113.825 118.308 113.274 121.38 109.765L178.351 44.6544" stroke="white" stroke-width="9" stroke-linecap="round"/>
<path d="M187.268 107.071C187.268 123.839 182.016 140.185 172.249 153.815C162.482 167.445 148.691 177.672 132.814 183.062C116.936 188.452 99.7688 188.733 83.7227 183.866C67.677 178.998 53.559 169.226 43.3515 155.925C33.1439 142.622 27.3597 126.456 26.8111 109.697C26.2624 92.9381 30.977 76.4284 40.2926 62.4865C49.6083 48.5447 63.057 37.871 78.75 31.9646C94.4429 26.0581 111.592 25.2157 127.789 29.5555" stroke="white" stroke-width="9" stroke-linecap="round"/>
</svg>
