<svg width="53" height="52" viewBox="0 0 53 52" fill="none" xmlns="http://www.w3.org/2000/svg">
<path d="M26.4801 0C21.2562 0 16.1495 1.52487 11.806 4.38179C7.46244 7.23871 4.07706 11.2994 2.07794 16.0502C0.078827 20.8011 -0.444233 26.0288 0.574907 31.0723C1.59405 36.1159 4.10961 40.7486 7.8035 44.3848C11.4974 48.0209 16.2037 50.4972 21.3272 51.5004C26.4508 52.5036 31.7615 51.9887 36.5878 50.0209C41.4141 48.053 45.5392 44.7205 48.4415 40.4448C51.3437 36.1691 52.8928 31.1423 52.8928 26C52.8854 19.1066 50.1003 12.4976 45.1485 7.62326C40.1968 2.74889 33.4829 0.00727955 26.4801 0ZM38.0763 21.415L23.8541 35.415C23.6654 35.601 23.4413 35.7485 23.1946 35.8491C22.948 35.9498 22.6836 36.0016 22.4166 36.0016C22.1496 36.0016 21.8852 35.9498 21.6386 35.8491C21.3919 35.7485 21.1678 35.601 20.9791 35.415L14.8839 29.415C14.5027 29.0397 14.2885 28.5307 14.2885 28C14.2885 27.4693 14.5027 26.9603 14.8839 26.585C15.2651 26.2097 15.7822 25.9989 16.3214 25.9989C16.8605 25.9989 17.3776 26.2097 17.7588 26.585L22.4166 31.1725L35.2014 18.585C35.3901 18.3992 35.6142 18.2518 35.8609 18.1512C36.1075 18.0506 36.3719 17.9989 36.6388 17.9989C36.9058 17.9989 37.1701 18.0506 37.4168 18.1512C37.6634 18.2518 37.8875 18.3992 38.0763 18.585C38.2651 18.7708 38.4148 18.9914 38.517 19.2342C38.6191 19.477 38.6717 19.7372 38.6717 20C38.6717 20.2628 38.6191 20.523 38.517 20.7658C38.4148 21.0086 38.2651 21.2292 38.0763 21.415Z" fill="#FF7A1A"/>
</svg>
