<svg width="168" height="167" viewBox="0 0 168 167" fill="none" xmlns="http://www.w3.org/2000/svg">
<path d="M27.0737 26.0938V67.8438H37.5112V78.2812H47.9487V67.8438H68.8237V26.0938H27.0737ZM68.8237 67.8438V78.2812H79.2612V88.7188H58.3862V99.1562H27.0737V140.906H68.8237V99.1562H100.136V88.7188H89.6987V78.2812H110.574V67.8438H121.011V78.2812H131.449V67.8438H141.886V26.0938H100.136V67.8438H68.8237ZM131.449 78.2812V88.7188H141.886V78.2812H131.449ZM131.449 88.7188H121.011V99.1562H131.449V88.7188ZM131.449 99.1562V109.594H141.886V99.1562H131.449ZM131.449 109.594H121.011V99.1562H110.574V109.594H84.48V140.906H94.9175V120.031H115.792V130.469H126.23V120.031H131.449V109.594ZM115.792 130.469H105.355V140.906H115.792V130.469ZM121.011 88.7188V78.2812H110.574V88.7188H121.011ZM58.3862 88.7188V78.2812H47.9487V88.7188H58.3862ZM37.5112 78.2812H27.0737V88.7188H37.5112V78.2812ZM79.2612 26.0938V46.9688H74.0425V57.4062H79.2612V62.625H89.6987V46.9688H94.9175V36.5312H89.6987V26.0938H79.2612ZM37.5112 36.5312H58.3862V57.4062H37.5112V36.5312ZM110.574 36.5312H131.449V57.4062H110.574V36.5312ZM42.73 41.75V52.1875H53.1675V41.75H42.73ZM115.792 41.75V52.1875H126.23V41.75H115.792ZM37.5112 109.594H58.3862V130.469H37.5112V109.594ZM42.73 114.812V125.25H53.1675V114.812H42.73ZM131.449 130.469V140.906H141.886V130.469H131.449Z" fill="black"/>
</svg>
